<?xml version="1.0" encoding="UTF-8" standalone="no"?>
<svg
   viewBox="0 0 24 24"
   version="1.1"
   id="svg4"
   sodipodi:docname="dlc-box.svg"
   inkscape:version="1.1.2 (b8e25be833, 2022-02-05)"
   xmlns:inkscape="http://www.inkscape.org/namespaces/inkscape"
   xmlns:sodipodi="http://sodipodi.sourceforge.net/DTD/sodipodi-0.dtd"
   xmlns="http://www.w3.org/2000/svg"
   xmlns:svg="http://www.w3.org/2000/svg">
  <defs
     id="defs8" />
  <sodipodi:namedview
     id="namedview6"
     pagecolor="#505050"
     bordercolor="#eeeeee"
     borderopacity="1"
     inkscape:pageshadow="0"
     inkscape:pageopacity="0"
     inkscape:pagecheckerboard="0"
     showgrid="false"
     inkscape:zoom="17.3125"
     inkscape:cx="8.0577617"
     inkscape:cy="8.8953069"
     inkscape:window-width="1920"
     inkscape:window-height="1017"
     inkscape:window-x="-8"
     inkscape:window-y="-8"
     inkscape:window-maximized="1"
     inkscape:current-layer="svg4" />
  <path
     id="path2"
     d="M 5 3 C 3.89 3 3 3.89 3 5 L 3 19 C 3 20.104569 3.8954305 21 5 21 L 19 21 C 20.104569 21 21 20.104569 21 19 L 21 5 C 21 3.89 20.1 3 19 3 L 5 3 z M 17.515625 9.0644531 C 17.798292 9.0644531 18.080615 9.1011146 18.363281 9.1757812 C 18.651281 9.2451146 18.926167 9.3421771 19.1875 9.4648438 L 18.796875 10.447266 C 18.583542 10.345932 18.367104 10.25826 18.148438 10.183594 C 17.935104 10.108927 17.723625 10.072266 17.515625 10.072266 C 17.051625 10.072266 16.696505 10.24513 16.451172 10.591797 C 16.205839 10.938464 16.083984 11.412958 16.083984 12.015625 C 16.083984 12.623625 16.195922 13.095641 16.419922 13.431641 C 16.649255 13.762307 17.014292 13.927734 17.515625 13.927734 C 17.744958 13.927734 17.978224 13.90099 18.212891 13.847656 C 18.447557 13.794323 18.700656 13.719047 18.972656 13.623047 L 18.972656 14.640625 C 18.72199 14.741958 18.473849 14.815281 18.228516 14.863281 C 17.983182 14.911281 17.708297 14.935547 17.404297 14.935547 C 16.812297 14.935547 16.325932 14.816172 15.947266 14.576172 C 15.568599 14.330839 15.288755 13.990068 15.107422 13.552734 C 14.926089 13.110068 14.835938 12.594479 14.835938 12.007812 C 14.835937 11.431812 14.940437 10.923135 15.148438 10.480469 C 15.356438 10.037802 15.658068 9.6901198 16.052734 9.4394531 C 16.452734 9.1887865 16.939625 9.0644531 17.515625 9.0644531 z M 4.8125 9.1445312 L 6.6035156 9.1445312 C 7.200849 9.1445312 7.7189167 9.2515104 8.15625 9.4648438 C 8.5989167 9.6781771 8.9396875 9.9922031 9.1796875 10.408203 C 9.4250208 10.824203 9.5488281 11.335359 9.5488281 11.943359 C 9.5488281 12.908693 9.2739427 13.63824 8.7246094 14.128906 C 8.175276 14.61424 7.4090677 14.855469 6.4277344 14.855469 L 4.8125 14.855469 L 4.8125 9.1445312 z M 10.732422 9.1445312 L 11.939453 9.1445312 L 11.939453 13.855469 L 14.259766 13.855469 L 14.259766 14.855469 L 10.732422 14.855469 L 10.732422 9.1445312 z M 6.0195312 10.136719 L 6.0195312 13.855469 L 6.5390625 13.855469 C 7.7070625 13.855469 8.2929688 13.229896 8.2929688 11.976562 C 8.2929687 11.347229 8.1542865 10.882651 7.8769531 10.583984 C 7.5996198 10.285318 7.1959687 10.136719 6.6679688 10.136719 L 6.0195312 10.136719 z "
     style="fill:#ffffff" />
</svg>
