<?xml version="1.0" encoding="UTF-8" standalone="no"?>
<svg
   height="33"
   viewBox="0 0 33 33"
   width="33"
   version="1.1"
   id="svg10"
   sodipodi:docname="KoFi logo.svg"
   inkscape:version="1.1.2 (b8e25be833, 2022-02-05)"
   xmlns:inkscape="http://www.inkscape.org/namespaces/inkscape"
   xmlns:sodipodi="http://sodipodi.sourceforge.net/DTD/sodipodi-0.dtd"
   xmlns="http://www.w3.org/2000/svg"
   xmlns:svg="http://www.w3.org/2000/svg">
  <defs
     id="defs14" />
  <sodipodi:namedview
     id="namedview12"
     pagecolor="#505050"
     bordercolor="#eeeeee"
     borderopacity="1"
     inkscape:pageshadow="0"
     inkscape:pageopacity="0"
     inkscape:pagecheckerboard="0"
     showgrid="false"
     inkscape:zoom="12.590909"
     inkscape:cx="17.67148"
     inkscape:cy="20.411552"
     inkscape:window-width="1920"
     inkscape:window-height="1017"
     inkscape:window-x="-8"
     inkscape:window-y="-8"
     inkscape:window-maximized="1"
     inkscape:current-layer="g8" />
  <g
     fill="none"
     id="g8">
    <path
       id="path4"
       d="M 6.1347656 8.8007812 C 5.4192018 8.8007813 4.8398438 9.3801393 4.8398438 10.095703 L 4.8398438 22.048828 C 4.8398438 23.479956 6.000513 24.640625 7.4316406 24.640625 L 19.666016 24.640625 C 21.097143 24.640625 22.257812 23.479956 22.257812 22.048828 L 22.257812 20.359375 L 23.865234 20.359375 C 26.966011 20.359375 29.480469 17.844917 29.480469 14.744141 L 29.480469 14.414062 C 29.480469 11.313286 26.966011 8.8007812 23.865234 8.8007812 L 22.257812 8.8007812 L 6.1347656 8.8007812 z M 22.257812 11.796875 L 23.722656 11.796875 C 25.259501 11.796875 26.505859 13.043234 26.505859 14.580078 C 26.505859 16.116922 25.259501 17.361328 23.722656 17.361328 L 22.257812 17.361328 L 22.257812 11.796875 z M 10.353516 12.320312 C 11.850516 12.320312 12.798925 12.904941 13.199219 14.076172 C 13.599513 12.904941 14.549875 12.320313 16.046875 12.320312 C 18.292375 12.320312 19.124297 15.113103 17.947266 16.939453 C 17.162578 18.15702 15.579115 19.698113 13.199219 21.560547 C 10.819323 19.698113 9.2378123 18.15702 8.453125 16.939453 C 7.2760941 15.113103 8.1080157 12.320313 10.353516 12.320312 z "
       style="fill:#ffffff" />
  </g>
</svg>
